<svg xmlns="http://www.w3.org/2000/svg" xmlns:xlink="http://www.w3.org/1999/xlink" version="1.1" width="256" height="256" viewBox="0 0 256 256" xml:space="preserve">

<defs>
</defs>
<g style="stroke: none; stroke-width: 0; stroke-dasharray: none; stroke-linecap: butt; stroke-linejoin: miter; stroke-miterlimit: 10; fill: none; fill-rule: nonzero; opacity: 1;" transform="translate(1.4065934065934016 1.4065934065934016) scale(2.81 2.81)" >
	<path d="M 43.779 89.566 L 12.722 64.315 c -0.452 -0.368 -0.714 -0.92 -0.714 -1.502 V 43.293 c 0 -0.747 0.43 -1.427 1.104 -1.748 c 0.674 -0.321 1.473 -0.225 2.053 0.246 L 45 66.049 l 29.836 -24.258 c 0.579 -0.471 1.378 -0.567 2.053 -0.246 c 0.674 0.321 1.104 1.001 1.104 1.748 v 19.521 c 0 0.582 -0.263 1.134 -0.714 1.502 L 46.221 89.566 C 45.51 90.145 44.49 90.145 43.779 89.566 z" style="stroke: none; stroke-width: 1; stroke-dasharray: none; stroke-linecap: butt; stroke-linejoin: miter; stroke-miterlimit: 10; fill: rgb(255,255,255); fill-rule: nonzero; opacity: 1;" transform=" matrix(1 0 0 1 0 0) " stroke-linecap="round" />
	<path d="M 43.779 48.208 l -31.057 -25.25 c -0.452 -0.368 -0.714 -0.919 -0.714 -1.502 V 1.936 c 0 -0.747 0.43 -1.427 1.104 -1.748 c 0.674 -0.321 1.473 -0.225 2.053 0.246 L 45 24.692 L 74.836 0.434 c 0.579 -0.471 1.378 -0.567 2.053 -0.246 c 0.674 0.321 1.104 1.001 1.104 1.748 v 19.521 c 0 0.583 -0.263 1.134 -0.714 1.502 l -31.057 25.25 C 45.51 48.786 44.49 48.786 43.779 48.208 z" style="stroke: none; stroke-width: 1; stroke-dasharray: none; stroke-linecap: butt; stroke-linejoin: miter; stroke-miterlimit: 10; fill: rgb(255,255,255); fill-rule: nonzero; opacity: 1;" transform=" matrix(1 0 0 1 0 0) " stroke-linecap="round" />
</g>
</svg>